<svg width="265" height="329" viewBox="0 0 265 329" fill="none" xmlns="http://www.w3.org/2000/svg">
<path fill-rule="evenodd" clip-rule="evenodd" d="M241 273.802C241 243.317 192.423 218.605 132.5 218.605C72.5771 218.605 22.5 243.317 22.5 273.802C59 296.736 153.8 328.844 241 273.802Z" fill="#81684F"/>
<path d="M132.5 329C192.423 329 241 304.287 241 273.802C153.8 328.844 59 296.736 22.5 273.802C22.5 304.287 72.5771 329 132.5 329Z" fill="#81684F"/>
<path fill-rule="evenodd" clip-rule="evenodd" d="M264.84 57.9302C264.946 57.0249 265 56.1139 265 55.1977C265 24.7128 205.678 0 132.5 0C59.3223 0 0 24.7128 0 55.1977C0 56.1139 0.0535879 57.0249 0.159529 57.9302H0L22.1673 271.628C87.2839 308.698 177.294 316.107 240.818 271.628L265 57.9302H264.84Z" fill="url(#paint0_linear_1_157)"/>
<path d="M250.5 52.5C250.5 57.3337 247.729 62.287 241.929 67.1229C236.144 71.9469 227.624 76.4033 216.875 80.1944C195.4 87.7685 165.569 92.5 132.5 92.5C99.431 92.5 69.6001 87.7685 48.1252 80.1944C37.3764 76.4033 28.8557 71.9469 23.0706 67.1229C17.2712 62.287 14.5 57.3337 14.5 52.5C14.5 47.6663 17.2712 42.713 23.0706 37.8771C28.8557 33.0531 37.3764 28.5967 48.1252 24.8056C69.6001 17.2315 99.431 12.5 132.5 12.5C165.569 12.5 195.4 17.2315 216.875 24.8056C227.624 28.5967 236.144 33.0531 241.929 37.8771C247.729 42.713 250.5 47.6663 250.5 52.5Z" fill="#82B049" stroke="#82B049" stroke-width="5"/>
<ellipse cx="132" cy="57.5" rx="117" ry="41.5" fill="#94C456"/>
<mask id="path-5-inside-1_1_157" fill="white">
<path fill-rule="evenodd" clip-rule="evenodd" d="M21.5647 265.32C21.5217 265.712 21.5 266.105 21.5 266.5C21.5 286.658 78.1 303 132.5 303C186.9 303 240.5 286.658 240.5 266.5C240.5 265.134 240.254 263.785 239.778 262.458C239.506 281.978 196.729 297.77 144 297.77C93.8741 297.77 28.2985 283.498 21.5647 265.32Z"/>
</mask>
<path fill-rule="evenodd" clip-rule="evenodd" d="M21.5647 265.32C21.5217 265.712 21.5 266.105 21.5 266.5C21.5 286.658 78.1 303 132.5 303C186.9 303 240.5 286.658 240.5 266.5C240.5 265.134 240.254 263.785 239.778 262.458C239.506 281.978 196.729 297.77 144 297.77C93.8741 297.77 28.2985 283.498 21.5647 265.32Z" fill="#82B049"/>
<path d="M21.5 266.5L16.5 266.5L16.5 266.5L21.5 266.5ZM21.5647 265.32L26.2534 263.583L16.5946 264.774L21.5647 265.32ZM132.5 303L132.5 298L132.5 303ZM239.778 262.458L244.484 260.77L234.778 262.388L239.778 262.458ZM144 297.77L144 292.77L144 292.77L144 297.77ZM26.5 266.5C26.5 266.289 26.5116 266.077 26.5349 265.865L16.5946 264.774C16.5319 265.346 16.5 265.921 16.5 266.5L26.5 266.5ZM132.5 298C105.732 298 78.4982 293.971 58.1035 287.541C47.8773 284.317 39.6489 280.575 34.0865 276.629C28.3498 272.56 26.5 269.062 26.5 266.5L16.5 266.5C16.5 274.017 21.7252 280.121 28.301 284.786C35.0511 289.574 44.3726 293.697 55.0965 297.078C76.6018 303.858 104.868 308 132.5 308L132.5 298ZM235.5 266.5C235.5 269.179 233.691 272.682 228.292 276.695C223.02 280.614 215.182 284.341 205.346 287.557C185.73 293.971 159.266 298 132.5 298L132.5 308C160.134 308 187.67 303.858 208.454 297.062C218.818 293.673 227.78 289.535 234.258 284.72C240.609 279.999 245.5 273.9 245.5 266.5H235.5ZM235.071 264.145C235.366 264.967 235.5 265.746 235.5 266.5H245.5C245.5 264.521 245.142 262.602 244.484 260.77L235.071 264.145ZM234.778 262.388C234.737 265.318 233.106 268.731 228.837 272.433C224.582 276.123 218.166 279.668 209.83 282.743C193.194 288.879 169.93 292.77 144 292.77V302.77C170.799 302.77 195.288 298.765 213.29 292.125C222.273 288.812 229.899 284.748 235.389 279.988C240.865 275.238 244.682 269.357 244.777 262.527L234.778 262.388ZM144 292.77C119.341 292.77 90.8202 289.251 67.7162 283.51C56.1527 280.636 46.1371 277.252 38.7029 273.577C34.9863 271.74 32.0508 269.896 29.9192 268.105C27.758 266.289 26.6853 264.749 26.2534 263.583L16.8761 267.056C18.1276 270.435 20.5772 273.317 23.4868 275.762C26.4261 278.231 30.1101 280.484 34.2713 282.541C42.5928 286.655 53.3666 290.248 65.3045 293.214C89.2032 299.153 118.534 302.77 144 302.77L144 292.77Z" fill="#A8886A" mask="url(#path-5-inside-1_1_157)"/>
<path d="M242 83C140.02 139.9 29.5845 87.6289 20 84C-3.18714 79.2079 16.1065 102.122 25 107C110.621 137.878 167.146 129.741 235 110C254.416 107.656 269.463 67.677 242 83Z" fill="#8B9896"/>
<path d="M43.6739 117.985C43.0656 120.395 40.836 121.91 38.6941 121.369C36.5522 120.828 35.309 118.437 35.9173 116.027C36.5257 113.617 38.7552 112.102 40.8972 112.643C43.0391 113.184 44.2823 115.576 43.6739 117.985Z" fill="#C3A07F"/>
<path d="M29.6103 116.497C29.2723 117.836 27.9131 118.647 26.5744 118.309C25.2357 117.971 24.4244 116.612 24.7624 115.273C25.1004 113.935 26.4596 113.124 27.7983 113.462C29.137 113.799 29.9483 115.159 29.6103 116.497Z" fill="#C3A07F"/>
<path d="M20.7521 118.902C20.4817 119.973 19.3944 120.622 18.3234 120.352C17.2524 120.081 16.6034 118.994 16.8738 117.923C17.1442 116.852 18.2316 116.203 19.3025 116.474C20.3735 116.744 21.0225 117.831 20.7521 118.902Z" fill="#C3A07F"/>
<path d="M32.0486 110.925C31.981 111.192 31.7091 111.355 31.4414 111.287C31.1737 111.22 31.0114 110.948 31.079 110.68C31.1466 110.412 31.4184 110.25 31.6862 110.318C31.9539 110.385 32.1162 110.657 32.0486 110.925Z" fill="#C3A07F"/>
<path d="M32.7351 128.631C32.3971 129.97 31.0379 130.781 29.6992 130.443C28.3605 130.105 27.5492 128.746 27.8872 127.408C28.2252 126.069 29.5844 125.258 30.9231 125.596C32.2618 125.934 33.0731 127.293 32.7351 128.631Z" fill="#C3A07F"/>
<path d="M43.6739 117.985C43.0656 120.395 40.836 121.91 38.6941 121.369C36.5522 120.828 35.309 118.437 35.9173 116.027C36.5257 113.617 38.7552 112.102 40.8972 112.643C43.0391 113.184 44.2823 115.576 43.6739 117.985Z" fill="#C3A07F"/>
<path d="M29.6103 116.497C29.2723 117.836 27.9131 118.647 26.5744 118.309C25.2357 117.971 24.4244 116.612 24.7624 115.273C25.1004 113.935 26.4596 113.124 27.7983 113.462C29.137 113.799 29.9483 115.159 29.6103 116.497Z" fill="#C3A07F"/>
<path d="M20.7521 118.902C20.4817 119.973 19.3944 120.622 18.3234 120.352C17.2524 120.081 16.6034 118.994 16.8738 117.923C17.1442 116.852 18.2316 116.203 19.3025 116.474C20.3735 116.744 21.0225 117.831 20.7521 118.902Z" fill="#C3A07F"/>
<path d="M32.0486 110.925C31.981 111.192 31.7091 111.355 31.4414 111.287C31.1737 111.22 31.0114 110.948 31.079 110.68C31.1466 110.412 31.4184 110.25 31.6862 110.318C31.9539 110.385 32.1162 110.657 32.0486 110.925Z" fill="#C3A07F"/>
<path d="M32.7351 128.631C32.3971 129.97 31.0379 130.781 29.6992 130.443C28.3605 130.105 27.5492 128.746 27.8872 127.408C28.2252 126.069 29.5844 125.258 30.9231 125.596C32.2618 125.934 33.0731 127.293 32.7351 128.631Z" fill="#C3A07F"/>
<path d="M43.6739 117.985C43.0656 120.395 40.836 121.91 38.6941 121.369C36.5522 120.828 35.309 118.437 35.9173 116.027C36.5257 113.617 38.7552 112.102 40.8972 112.643C43.0391 113.184 44.2823 115.576 43.6739 117.985Z" fill="#C3A07F"/>
<path d="M105.473 138.744C105.135 140.083 103.775 140.894 102.437 140.556C101.098 140.218 100.287 138.859 100.625 137.52C100.963 136.182 102.322 135.37 103.661 135.708C104.999 136.046 105.81 137.406 105.473 138.744Z" fill="#C3A07F"/>
<path d="M20.7521 118.902C20.4817 119.973 19.3944 120.622 18.3234 120.352C17.2524 120.081 16.6034 118.994 16.8738 117.923C17.1442 116.852 18.2316 116.203 19.3025 116.474C20.3735 116.744 21.0225 117.831 20.7521 118.902Z" fill="#C3A07F"/>
<path d="M32.0486 110.925C31.981 111.192 31.7091 111.355 31.4414 111.287C31.1737 111.22 31.0114 110.948 31.079 110.68C31.1466 110.412 31.4184 110.25 31.6862 110.318C31.9539 110.385 32.1162 110.657 32.0486 110.925Z" fill="#C3A07F"/>
<path d="M32.7351 128.631C32.3971 129.97 31.0379 130.781 29.6992 130.443C28.3605 130.105 27.5492 128.746 27.8872 127.408C28.2252 126.069 29.5844 125.258 30.9231 125.596C32.2618 125.934 33.0731 127.293 32.7351 128.631Z" fill="#C3A07F"/>
<path d="M73.2317 131.636C72.6233 134.046 70.3938 135.561 68.2518 135.02C66.1099 134.479 64.8667 132.087 65.4751 129.678C66.0834 127.268 68.313 125.753 70.4549 126.294C72.5968 126.834 73.8401 129.226 73.2317 131.636Z" fill="#C3A07F"/>
<path d="M59.168 130.148C58.8301 131.487 57.4708 132.298 56.1321 131.96C54.7934 131.622 53.9822 130.263 54.3202 128.924C54.6581 127.585 56.0174 126.774 57.3561 127.112C58.6948 127.45 59.506 128.809 59.168 130.148Z" fill="#C3A07F"/>
<path d="M50.3099 132.553C50.0395 133.624 48.9521 134.273 47.8812 134.002C46.8102 133.732 46.1612 132.645 46.4316 131.574C46.702 130.503 47.7893 129.854 48.8603 130.124C49.9313 130.394 50.5803 131.482 50.3099 132.553Z" fill="#C3A07F"/>
<path d="M61.6063 124.575C61.5387 124.843 61.2669 125.005 60.9991 124.938C60.7314 124.87 60.5692 124.598 60.6368 124.331C60.7043 124.063 60.9762 123.901 61.2439 123.968C61.5117 124.036 61.6739 124.308 61.6063 124.575Z" fill="#C3A07F"/>
<path d="M62.2929 142.282C61.9549 143.621 60.5957 144.432 59.2569 144.094C57.9182 143.756 57.107 142.397 57.445 141.058C57.7829 139.719 59.1422 138.908 60.4809 139.246C61.8196 139.584 62.6308 140.943 62.2929 142.282Z" fill="#C3A07F"/>
<path d="M117 164.5C117 166.985 115.209 169 113 169C110.791 169 109 166.985 109 164.5C109 162.015 110.791 160 113 160C115.209 160 117 162.015 117 164.5Z" fill="#A8886A"/>
<path d="M103 166.5C103 167.881 101.881 169 100.5 169C99.1193 169 98 167.881 98 166.5C98 165.119 99.1193 164 100.5 164C101.881 164 103 165.119 103 166.5Z" fill="#A8886A"/>
<path d="M95 171C95 172.105 94.1046 173 93 173C91.8954 173 91 172.105 91 171C91 169.895 91.8954 169 93 169C94.1046 169 95 169.895 95 171Z" fill="#A8886A"/>
<path d="M104 160.5C104 160.776 103.776 161 103.5 161C103.224 161 103 160.776 103 160.5C103 160.224 103.224 160 103.5 160C103.776 160 104 160.224 104 160.5Z" fill="#A8886A"/>
<path d="M109 177.5C109 178.881 107.881 180 106.5 180C105.119 180 104 178.881 104 177.5C104 176.119 105.119 175 106.5 175C107.881 175 109 176.119 109 177.5Z" fill="#A8886A"/>
<path d="M117 164.5C117 166.985 115.209 169 113 169C110.791 169 109 166.985 109 164.5C109 162.015 110.791 160 113 160C115.209 160 117 162.015 117 164.5Z" fill="#A8886A"/>
<path d="M103 166.5C103 167.881 101.881 169 100.5 169C99.1193 169 98 167.881 98 166.5C98 165.119 99.1193 164 100.5 164C101.881 164 103 165.119 103 166.5Z" fill="#A8886A"/>
<path d="M95 171C95 172.105 94.1046 173 93 173C91.8954 173 91 172.105 91 171C91 169.895 91.8954 169 93 169C94.1046 169 95 169.895 95 171Z" fill="#A8886A"/>
<path d="M104 160.5C104 160.776 103.776 161 103.5 161C103.224 161 103 160.776 103 160.5C103 160.224 103.224 160 103.5 160C103.776 160 104 160.224 104 160.5Z" fill="#A8886A"/>
<path d="M109 177.5C109 178.881 107.881 180 106.5 180C105.119 180 104 178.881 104 177.5C104 176.119 105.119 175 106.5 175C107.881 175 109 176.119 109 177.5Z" fill="#A8886A"/>
<path d="M117 164.5C117 166.985 115.209 169 113 169C110.791 169 109 166.985 109 164.5C109 162.015 110.791 160 113 160C115.209 160 117 162.015 117 164.5Z" fill="#A8886A"/>
<path d="M182 169.5C182 170.881 180.881 172 179.5 172C178.119 172 177 170.881 177 169.5C177 168.119 178.119 167 179.5 167C180.881 167 182 168.119 182 169.5Z" fill="#A8886A"/>
<path d="M95 171C95 172.105 94.1046 173 93 173C91.8954 173 91 172.105 91 171C91 169.895 91.8954 169 93 169C94.1046 169 95 169.895 95 171Z" fill="#A8886A"/>
<path d="M104 160.5C104 160.776 103.776 161 103.5 161C103.224 161 103 160.776 103 160.5C103 160.224 103.224 160 103.5 160C103.776 160 104 160.224 104 160.5Z" fill="#A8886A"/>
<path d="M109 177.5C109 178.881 107.881 180 106.5 180C105.119 180 104 178.881 104 177.5C104 176.119 105.119 175 106.5 175C107.881 175 109 176.119 109 177.5Z" fill="#A8886A"/>
<path d="M149 170.5C149 172.985 147.209 175 145 175C142.791 175 141 172.985 141 170.5C141 168.015 142.791 166 145 166C147.209 166 149 168.015 149 170.5Z" fill="#A8886A"/>
<path d="M135 172.5C135 173.881 133.881 175 132.5 175C131.119 175 130 173.881 130 172.5C130 171.119 131.119 170 132.5 170C133.881 170 135 171.119 135 172.5Z" fill="#A8886A"/>
<path d="M127 177C127 178.105 126.105 179 125 179C123.895 179 123 178.105 123 177C123 175.895 123.895 175 125 175C126.105 175 127 175.895 127 177Z" fill="#A8886A"/>
<path d="M136 166.5C136 166.776 135.776 167 135.5 167C135.224 167 135 166.776 135 166.5C135 166.224 135.224 166 135.5 166C135.776 166 136 166.224 136 166.5Z" fill="#A8886A"/>
<path d="M141 183.5C141 184.881 139.881 186 138.5 186C137.119 186 136 184.881 136 183.5C136 182.119 137.119 181 138.5 181C139.881 181 141 182.119 141 183.5Z" fill="#A8886A"/>
<path d="M156 139.5C156 141.985 154.209 144 152 144C149.791 144 148 141.985 148 139.5C148 137.015 149.791 135 152 135C154.209 135 156 137.015 156 139.5Z" fill="#A8886A"/>
<path d="M142 141.5C142 142.881 140.881 144 139.5 144C138.119 144 137 142.881 137 141.5C137 140.119 138.119 139 139.5 139C140.881 139 142 140.119 142 141.5Z" fill="#A8886A"/>
<path d="M134 146C134 147.105 133.105 148 132 148C130.895 148 130 147.105 130 146C130 144.895 130.895 144 132 144C133.105 144 134 144.895 134 146Z" fill="#A8886A"/>
<path d="M143 135.5C143 135.776 142.776 136 142.5 136C142.224 136 142 135.776 142 135.5C142 135.224 142.224 135 142.5 135C142.776 135 143 135.224 143 135.5Z" fill="#A8886A"/>
<path d="M148 152.5C148 153.881 146.881 155 145.5 155C144.119 155 143 153.881 143 152.5C143 151.119 144.119 150 145.5 150C146.881 150 148 151.119 148 152.5Z" fill="#A8886A"/>
<path d="M156 139.5C156 141.985 154.209 144 152 144C149.791 144 148 141.985 148 139.5C148 137.015 149.791 135 152 135C154.209 135 156 137.015 156 139.5Z" fill="#A8886A"/>
<path d="M142 141.5C142 142.881 140.881 144 139.5 144C138.119 144 137 142.881 137 141.5C137 140.119 138.119 139 139.5 139C140.881 139 142 140.119 142 141.5Z" fill="#A8886A"/>
<path d="M134 146C134 147.105 133.105 148 132 148C130.895 148 130 147.105 130 146C130 144.895 130.895 144 132 144C133.105 144 134 144.895 134 146Z" fill="#A8886A"/>
<path d="M143 135.5C143 135.776 142.776 136 142.5 136C142.224 136 142 135.776 142 135.5C142 135.224 142.224 135 142.5 135C142.776 135 143 135.224 143 135.5Z" fill="#A8886A"/>
<path d="M148 152.5C148 153.881 146.881 155 145.5 155C144.119 155 143 153.881 143 152.5C143 151.119 144.119 150 145.5 150C146.881 150 148 151.119 148 152.5Z" fill="#A8886A"/>
<path d="M156 139.5C156 141.985 154.209 144 152 144C149.791 144 148 141.985 148 139.5C148 137.015 149.791 135 152 135C154.209 135 156 137.015 156 139.5Z" fill="#A8886A"/>
<path d="M221 144.5C221 145.881 219.881 147 218.5 147C217.119 147 216 145.881 216 144.5C216 143.119 217.119 142 218.5 142C219.881 142 221 143.119 221 144.5Z" fill="#A8886A"/>
<path d="M134 146C134 147.105 133.105 148 132 148C130.895 148 130 147.105 130 146C130 144.895 130.895 144 132 144C133.105 144 134 144.895 134 146Z" fill="#A8886A"/>
<path d="M143 135.5C143 135.776 142.776 136 142.5 136C142.224 136 142 135.776 142 135.5C142 135.224 142.224 135 142.5 135C142.776 135 143 135.224 143 135.5Z" fill="#A8886A"/>
<path d="M148 152.5C148 153.881 146.881 155 145.5 155C144.119 155 143 153.881 143 152.5C143 151.119 144.119 150 145.5 150C146.881 150 148 151.119 148 152.5Z" fill="#A8886A"/>
<path d="M188 145.5C188 147.985 186.209 150 184 150C181.791 150 180 147.985 180 145.5C180 143.015 181.791 141 184 141C186.209 141 188 143.015 188 145.5Z" fill="#A8886A"/>
<path d="M174 147.5C174 148.881 172.881 150 171.5 150C170.119 150 169 148.881 169 147.5C169 146.119 170.119 145 171.5 145C172.881 145 174 146.119 174 147.5Z" fill="#A8886A"/>
<path d="M166 152C166 153.105 165.105 154 164 154C162.895 154 162 153.105 162 152C162 150.895 162.895 150 164 150C165.105 150 166 150.895 166 152Z" fill="#A8886A"/>
<path d="M175 141.5C175 141.776 174.776 142 174.5 142C174.224 142 174 141.776 174 141.5C174 141.224 174.224 141 174.5 141C174.776 141 175 141.224 175 141.5Z" fill="#A8886A"/>
<path d="M180 158.5C180 159.881 178.881 161 177.5 161C176.119 161 175 159.881 175 158.5C175 157.119 176.119 156 177.5 156C178.881 156 180 157.119 180 158.5Z" fill="#A8886A"/>
<path d="M192.124 126.703C192.894 129.066 191.816 131.536 189.715 132.221C187.615 132.905 185.288 131.545 184.518 129.182C183.748 126.819 184.826 124.348 186.926 123.664C189.027 122.979 191.354 124.34 192.124 126.703Z" fill="#C6A281"/>
<path d="M179.433 132.942C179.861 134.255 179.143 135.666 177.83 136.094C176.518 136.522 175.107 135.805 174.679 134.492C174.251 133.179 174.968 131.768 176.281 131.34C177.594 130.912 179.005 131.63 179.433 132.942Z" fill="#C6A281"/>
<path d="M173.221 139.7C173.563 140.75 172.989 141.879 171.939 142.221C170.889 142.563 169.76 141.989 169.418 140.939C169.075 139.889 169.649 138.76 170.699 138.418C171.75 138.076 172.879 138.65 173.221 139.7Z" fill="#C6A281"/>
<path d="M178.524 126.928C178.61 127.19 178.466 127.473 178.204 127.558C177.941 127.644 177.659 127.5 177.574 127.238C177.488 126.975 177.631 126.693 177.894 126.607C178.157 126.522 178.439 126.665 178.524 126.928Z" fill="#C6A281"/>
<path d="M188.546 141.542C188.974 142.855 188.256 144.266 186.944 144.694C185.631 145.121 184.22 144.404 183.792 143.091C183.364 141.778 184.081 140.367 185.394 139.94C186.707 139.512 188.118 140.229 188.546 141.542Z" fill="#C6A281"/>
<path d="M192.124 126.703C192.894 129.066 191.816 131.536 189.715 132.221C187.615 132.905 185.288 131.545 184.518 129.182C183.748 126.819 184.826 124.348 186.926 123.664C189.027 122.979 191.354 124.34 192.124 126.703Z" fill="#C6A281"/>
<path d="M179.433 132.942C179.861 134.255 179.143 135.666 177.83 136.094C176.518 136.522 175.107 135.805 174.679 134.492C174.251 133.179 174.968 131.768 176.281 131.34C177.594 130.912 179.005 131.63 179.433 132.942Z" fill="#C6A281"/>
<path d="M173.221 139.7C173.563 140.75 172.989 141.879 171.939 142.221C170.889 142.563 169.76 141.989 169.418 140.939C169.075 139.889 169.649 138.76 170.699 138.418C171.75 138.076 172.879 138.65 173.221 139.7Z" fill="#C6A281"/>
<path d="M178.524 126.928C178.61 127.19 178.466 127.473 178.204 127.558C177.941 127.644 177.659 127.5 177.574 127.238C177.488 126.975 177.631 126.693 177.894 126.607C178.157 126.522 178.439 126.665 178.524 126.928Z" fill="#C6A281"/>
<path d="M188.546 141.542C188.974 142.855 188.256 144.266 186.944 144.694C185.631 145.121 184.22 144.404 183.792 143.091C183.364 141.778 184.081 140.367 185.394 139.94C186.707 139.512 188.118 140.229 188.546 141.542Z" fill="#C6A281"/>
<path d="M192.124 126.703C192.894 129.066 191.816 131.536 189.715 132.221C187.615 132.905 185.288 131.545 184.518 129.182C183.748 126.819 184.826 124.348 186.926 123.664C189.027 122.979 191.354 124.34 192.124 126.703Z" fill="#C6A281"/>
<path d="M255.474 111.316C255.902 112.629 255.185 114.04 253.872 114.468C252.559 114.895 251.148 114.178 250.72 112.865C250.292 111.552 251.01 110.141 252.322 109.714C253.635 109.286 255.046 110.003 255.474 111.316Z" fill="#C6A281"/>
<path d="M173.221 139.7C173.563 140.75 172.989 141.879 171.939 142.221C170.889 142.563 169.76 141.989 169.418 140.939C169.075 139.889 169.649 138.76 170.699 138.418C171.75 138.076 172.879 138.65 173.221 139.7Z" fill="#C6A281"/>
<path d="M178.524 126.928C178.61 127.19 178.466 127.473 178.204 127.558C177.941 127.644 177.659 127.5 177.574 127.238C177.488 126.975 177.631 126.693 177.894 126.607C178.157 126.522 178.439 126.665 178.524 126.928Z" fill="#C6A281"/>
<path d="M188.546 141.542C188.974 142.855 188.256 144.266 186.944 144.694C185.631 145.121 184.22 144.404 183.792 143.091C183.364 141.778 184.081 140.367 185.394 139.94C186.707 139.512 188.118 140.229 188.546 141.542Z" fill="#C6A281"/>
<path d="M224.408 122.492C225.178 124.855 224.1 127.325 221.999 128.01C219.899 128.695 217.572 127.334 216.802 124.971C216.032 122.608 217.11 120.138 219.211 119.453C221.311 118.768 223.638 120.129 224.408 122.492Z" fill="#C6A281"/>
<path d="M211.717 128.732C212.145 130.044 211.427 131.455 210.115 131.883C208.802 132.311 207.391 131.594 206.963 130.281C206.535 128.968 207.253 127.557 208.565 127.129C209.878 126.702 211.289 127.419 211.717 128.732Z" fill="#C6A281"/>
<path d="M205.505 135.489C205.847 136.539 205.273 137.668 204.223 138.01C203.173 138.353 202.044 137.779 201.702 136.728C201.36 135.678 201.933 134.549 202.984 134.207C204.034 133.865 205.163 134.439 205.505 135.489Z" fill="#C6A281"/>
<path d="M210.809 122.717C210.894 122.98 210.751 123.262 210.488 123.347C210.225 123.433 209.943 123.29 209.858 123.027C209.772 122.764 209.916 122.482 210.178 122.397C210.441 122.311 210.723 122.455 210.809 122.717Z" fill="#C6A281"/>
<path d="M220.83 137.331C221.258 138.644 220.54 140.055 219.228 140.483C217.915 140.911 216.504 140.193 216.076 138.88C215.648 137.568 216.366 136.157 217.678 135.729C218.991 135.301 220.402 136.018 220.83 137.331Z" fill="#C6A281"/>
<ellipse cx="133" cy="64.5" rx="102" ry="34.5" fill="#82B049"/>
<ellipse cx="128.133" cy="62.4373" rx="95.2792" ry="31.5442" fill="#94C456"/>
<ellipse cx="131.847" cy="64.1068" rx="78.9492" ry="25.1068" fill="#82B049"/>
<ellipse cx="128.08" cy="62.6058" rx="73.7472" ry="22.9558" fill="#94C456"/>
<ellipse cx="132.5" cy="60" rx="10.5" ry="3" fill="#82B049"/>
<ellipse cx="130.094" cy="59.2443" rx="7.93994" ry="2.1825" fill="#94C456"/>
<defs>
<linearGradient id="paint0_linear_1_157" x1="132" y1="113.007" x2="127.779" y2="324.337" gradientUnits="userSpaceOnUse">
<stop stop-color="#97A5A3"/>
<stop offset="0.34" stop-color="#B49A88"/>
<stop offset="0.72" stop-color="#B49A88"/>
</linearGradient>
</defs>
</svg>
